<svg xmlns="http://www.w3.org/2000/svg" viewBox="0 0 872 971" width="436" height="485"><defs><clipPath clipPathUnits="userSpaceOnUse" id="cp1"><path d="M0 0h872v971H0z"/></clipPath></defs><style/><g id="Page 1" clip-path="url(#cp1)"><path id="Path 1" d="M761.66 337.28c29.84-29.23 48.36-69.97 48.36-115.04 0-8.46-.66-16.75-1.91-24.85l-98.45 28.22-13.81 15.91 65.81 95.76zM673.8 63.07v114.46H697l95.95-27.51c-22.93-45.62-66.88-78.85-119.15-86.95zM573.06 364.31c22.61 12.11 48.44 18.99 75.88 18.99 25.99 0 50.54-6.16 72.28-17.09l-61.13-88.94-87.03 87.04zm51.03-301.24c-49.88 7.73-92.2 38.35-115.88 80.79l100.61 33.67h15.27V63.07zm182.34 1.68c-42.07-42.06-98-65.23-157.48-65.23-59.49 0-115.42 23.17-157.49 65.23-31.32 31.32-52.15 70.34-60.75 112.78h40.83c20-79.34 91.95-138.24 177.41-138.24 100.88 0 182.94 82.07 182.94 182.94 0 100.88-82.06 182.95-182.94 182.95-33.49 0-64.9-9.06-91.93-24.83l-28.98 28.99c35.7 23.17 77.35 35.61 120.91 35.61 59.49 0 115.42-23.17 157.48-65.23 42.07-42.07 65.23-98 65.23-157.48 0-59.5-23.17-115.42-65.23-157.49zM369.45 908.14V515.85l291.14-291.14v-21.52H0v21.52l291.14 291.14v392.29H184.06L161.03 971h338.53l-23.03-62.86H369.45zm-138.6-730.61L89.71 36.39 61.43 64.68l112.85 112.85h56.57z" fill="#000"/></g></svg>