<svg xmlns="http://www.w3.org/2000/svg" width="190" height="148"><defs><clipPath clipPathUnits="userSpaceOnUse" id="cp1"><path d="M0 0h190v148H0z"/></clipPath></defs><style/><g id="Page 1" clip-path="url(#cp1)"><path id="Path 1" fill-rule="evenodd" d="M178.32 56.82H11.67c0-31.6 37.3-57.22 83.32-57.22 46.02 0 83.33 25.62 83.33 57.22zm-71.63-34.66c0-1.1-1.96-1.99-4.38-1.99s-4.38.89-4.38 1.99 1.96 1.99 4.38 1.99 4.38-.89 4.38-1.99zM84.24 9.01c0-1.1-1.96-1.99-4.37-1.99-2.42 0-4.38.89-4.38 1.99S77.45 11 79.87 11c2.41 0 4.37-.9 4.37-1.99zm34.24-1.99c0-1.1-1.97-1.99-4.38-1.99-2.42 0-4.38.89-4.38 1.99s1.96 1.99 4.38 1.99c2.41 0 4.38-.89 4.38-1.99zM94.99 148c-91.22 0-83.32-14.22-83.32-45.82h166.65c0 31.61 10.52 45.82-83.33 45.82zm91.15-61.29H2.05c-3.19-4.56-3.02-10.56 3.11-14.57 14.02-9.16 27.73-6.03 42.56.43 7.08 3.09 15 6.41 22.84 4.18 7.5-2.13 14.16-6.13 21.52-8.61 28.21-9.54 57.56 11.58 85.59.16 11.34-4.61 16.8 11.65 8.47 18.41z" fill="#000"/></g></svg>