<svg xmlns="http://www.w3.org/2000/svg" viewBox="0 0 240 240" width="240" height="240">
	<defs>
		<clipPath clipPathUnits="userSpaceOnUse" id="cp1">
			<path d="M0 0L240 0L240 240L0 240Z" />
		</clipPath>
	</defs>
	<style>
		tspan { white-space:pre }
		.shp0 { fill: #ffffff } 
	</style>
	<g id="Page 1" clip-path="url(#cp1)">
		<path id="Path 1" class="shp0" d="M123.08 81.89L103.05 81.89L103.05 99.28L119.93 116.15L120.08 116.15L142.11 94.12C141.41 90.99 140.01 88.4 137.88 86.38C134.71 83.39 129.77 81.89 123.08 81.89Z" />
		<path id="Path 2" fill-rule="evenodd" class="shp0" d="M240 120C240 186.27 186.27 240 120 240C53.73 240 0 186.27 0 120C0 53.73 53.73 0 120 0C186.27 0 240 53.73 240 120ZM128.05 115.73L184.35 59.42L180.58 55.65L152 84.23C150.76 82.16 149.24 80.29 147.36 78.7C141.77 74 133.68 71.65 123.08 71.65L89.95 71.65L89.95 86.18L59.43 55.65L55.65 59.42L112.38 116.15L103.05 116.15L103.05 112.67L89.95 100.17L89.95 146.28L55.65 180.58L59.43 184.35L113.71 130.06L106.11 130.12L103.05 133.18L103.05 126.47L125.47 126.47C130.62 126.47 134.72 128.06 137.78 131.25C139.53 133.08 140.76 135.25 141.51 137.74L138.43 134.66C136.48 132.71 132.46 130.06 127.46 130.06L126.29 130.06L180.58 184.35L184.35 180.58L155.47 151.7L155.47 143.76C155.47 138.04 154.31 133.24 151.98 129.36C149.65 125.48 145.83 122.67 140.51 120.94C145.47 118.77 149.25 115.84 151.85 112.16C154.44 108.48 155.74 104.16 155.74 99.19C155.74 97.48 155.94 95.05 155.74 93.5C155.39 93.82 143.83 105.66 140.13 109.03C139.46 110.11 138.7 111.11 137.74 111.93C135.5 113.87 132.25 115.12 128.05 115.73ZM103.05 146.33L89.95 159.53L89.95 168.44L103.05 168.44L103.05 146.33ZM159.93 168.44L142.37 152.13L142.37 152.74C142.37 152.74 142.61 158.86 143.1 161.79C143.59 164.72 144.7 166.93 146.43 168.44L159.93 168.44Z" />
	</g>
</svg>